<?xml version="1.0" encoding="utf-8"?>
<!-- Generator: Adobe Illustrator 24.2.3, SVG Export Plug-In . SVG Version: 6.00 Build 0)  -->
<svg version="1.1" xmlns="http://www.w3.org/2000/svg" xmlns:xlink="http://www.w3.org/1999/xlink" x="0px" y="0px"
	 viewBox="0 0 500 500" style="enable-background:new 0 0 500 500;" xml:space="preserve">
<style type="text/css">
	.st0{fill:#26A8DF;}
	.st1{fill:#BC2020;}
	.st2{fill:#D13333;}
	.st3{fill:#9B1515;}
	.st4{fill:#F45151;}
	.st5{fill:#81D4FA;}
	.st6{fill:#404041;}
	.st7{fill:#333333;}
	.st8{fill:#6D6E70;}
	.st9{fill:#A5A7AA;}
	.st10{fill:#282525;}
	.st11{fill:#DBC052;}
	.st12{fill:#CC9900;}
	.st13{fill:#FFFFFF;}
	.st14{fill:#F2E29E;}
</style>
<g id="Capa_1">
	<rect x="312" y="247.24" class="st0" width="63.28" height="252.77"/>
	<path class="st1" d="M487.09,139.29v122.76c0,0.29-0.02,0.57-0.04,0.86c-0.43,5.76-5.27,10.31-11.13,10.31H337.18
		c-5.86,0-10.71-4.56-11.14-10.31c-0.02-0.28-0.03-0.57-0.03-0.86V142.31h-62.53V58.76h147.6v0.13c9.02,0.5,17.68,2.5,25.66,5.75
		c4.79,1.95,9.37,4.34,13.64,7.15c10.69,6.93,19.61,16.35,25.97,27.4c5.97,10.31,9.7,22.05,10.56,34.56
		C487.02,135.59,487.09,137.43,487.09,139.29z"/>
	<path class="st2" d="M486.91,133.75H263.47V64.64h173.27C464.6,75.95,484.76,102.42,486.91,133.75z"/>
	<path class="st3" d="M487.05,262.91c-0.43,5.76-5.27,10.31-11.13,10.31H337.18c-5.86,0-10.71-4.56-11.14-10.31H487.05z"/>
	<path class="st4" d="M194.12,273.22c-6.16,0-11.17-5.01-11.17-11.17V139.29c0-44.41,36.13-80.53,80.53-80.53
		c44.41,0,80.53,36.13,80.53,80.53v122.76c0,6.16-5.01,11.17-11.17,11.17H194.12z"/>
	<path class="st2" d="M338.66,139.29v122.87c-0.05,3.15-2.65,5.7-5.81,5.7H194.11c-3.2,0-5.81-2.61-5.81-5.81V139.29
		c0-0.66,0-1.32,0.02-1.97c0.25-9.13,2.11-17.87,5.32-25.91c1.63-4.06,3.59-7.94,5.88-11.62c13.24-21.41,36.94-35.67,63.95-35.67
		c20.77,0,39.55,8.42,53.17,22.02c4.11,4.11,7.74,8.68,10.79,13.65c2.29,3.66,4.27,7.56,5.88,11.62c3.22,8.04,5.08,16.78,5.32,25.91
		C338.66,137.97,338.66,138.63,338.66,139.29z"/>
	<path class="st2" d="M338.66,257.96v4.09c0,3.2-2.61,5.81-5.81,5.81H194.11c-3.2,0-5.81-2.61-5.81-5.81v-4.09H338.66z"/>
	<polygon class="st5" points="352.9,500 318.05,500 318.05,336.65 352.9,372.42 	"/>
	<path class="st4" d="M338.64,137.32H188.32c0.25-9.13,2.11-17.87,5.32-25.91c1.63-4.06,3.59-7.94,5.88-11.62h127.91
		c2.29,3.66,4.27,7.56,5.88,11.62C336.53,119.45,338.39,128.19,338.64,137.32z"/>
	<path class="st4" d="M333.32,111.41H193.65c11.08-27.7,38.18-47.29,69.83-47.29c20.77,0,39.55,8.42,53.17,22.02
		C323.79,93.29,329.51,101.87,333.32,111.41z"/>
	<g>
		<path class="st4" d="M446.8,73.57h-19.67c10.69,6.93,19.61,16.35,25.97,27.4h19.67C466.41,89.93,457.49,80.51,446.8,73.57z"/>
		<path class="st4" d="M423.55,73.57H314.19c9.51,7.27,17.35,16.64,22.86,27.4h112.47C443.16,89.93,434.24,80.51,423.55,73.57z"/>
	</g>
	<g>
		<path class="st5" d="M401.04,5.06h-15.19c-1.66,0-3.02,1.35-3.02,3.02v136.66c-4.72,3.22-8.04,10.92-8.04,19.92
			c0,11.89,5.8,21.53,12.96,21.53c7.16,0,12.96-9.64,12.96-21.53c0-9-3.32-16.7-8.04-19.92V26.28h8.38c1.67,0,3.02-1.35,3.02-3.02
			V8.08C404.06,6.41,402.71,5.06,401.04,5.06z"/>
		<path class="st0" d="M402.83,5.06h-15.19c-1.67,0-3.02,1.35-3.02,3.02v136.66c-4.72,3.22-8.04,10.92-8.04,19.92
			c0,11.89,5.8,21.53,12.96,21.53s12.96-9.64,12.96-21.53c0-9-3.32-16.7-8.04-19.92V26.28h8.38c1.66,0,3.02-1.35,3.02-3.02V8.08
			C405.85,6.41,404.5,5.06,402.83,5.06z"/>
		<ellipse class="st5" cx="389.54" cy="164.65" rx="4.91" ry="8.17"/>
	</g>
</g>
<g id="Capa_2">
	<rect x="312" y="247.24" class="st0" width="63.28" height="252.77"/>
	<path class="st1" d="M487.09,139.29v122.76c0,0.29-0.02,0.57-0.04,0.86c-0.43,5.76-5.27,10.31-11.13,10.31H337.18
		c-5.86,0-10.71-4.56-11.14-10.31c-0.02-0.28-0.03-0.57-0.03-0.86V142.31h-62.53V58.76h147.6v0.13c9.02,0.5,17.68,2.5,25.66,5.75
		c4.79,1.95,9.37,4.34,13.64,7.15c10.69,6.93,19.61,16.35,25.97,27.4c5.97,10.31,9.7,22.05,10.56,34.56
		C487.02,135.59,487.09,137.43,487.09,139.29z"/>
	<path class="st2" d="M486.91,133.75H263.47V64.64h173.27C464.6,75.95,484.76,102.42,486.91,133.75z"/>
	<path class="st3" d="M487.05,262.91c-0.43,5.76-5.27,10.31-11.13,10.31H337.18c-5.86,0-10.71-4.56-11.14-10.31H487.05z"/>
	<path class="st4" d="M194.12,273.22c-6.16,0-11.17-5.01-11.17-11.17V139.29c0-44.41,36.13-80.53,80.53-80.53
		c44.41,0,80.53,36.13,80.53,80.53v122.76c0,6.16-5.01,11.17-11.17,11.17H194.12z"/>
	<path class="st6" d="M338.66,139.29v122.87c-0.05,3.15-2.65,5.7-5.81,5.7H194.11c-3.2,0-5.81-2.61-5.81-5.81V139.29
		c0-0.66,0-1.32,0.02-1.97c0.25-9.13,2.11-17.87,5.32-25.91c1.63-4.06,3.59-7.94,5.88-11.62c13.24-21.41,36.94-35.67,63.95-35.67
		c20.77,0,39.55,8.42,53.17,22.02c4.11,4.11,7.74,8.68,10.79,13.65c2.29,3.66,4.27,7.56,5.88,11.62c3.22,8.04,5.08,16.78,5.32,25.91
		C338.66,137.97,338.66,138.63,338.66,139.29z"/>
	<path class="st7" d="M338.66,257.96v4.09c0,3.2-2.61,5.81-5.81,5.81H194.11c-3.2,0-5.81-2.61-5.81-5.81v-4.09H338.66z"/>
	<g>
		<path class="st3" d="M335.38,274.9l-2.34-4.74l-6.85,3.05H190.7c-6.16,0-14.2,2.49-17.92,5.55l-74.18,61
			c-9.13,7.5-13.48,14.53-13.53,20.54l-1.55-0.2l2.54,5.05c0.05,0.11,0.11,0.21,0.16,0.32l0.37,0.75l0.02,0
			c4.66,8.31,19.85,13.57,43.86,13.57c44.41,0,102.36-17.95,129.2-40.02l74.18-61C335.67,277.26,336.12,275.9,335.38,274.9z"/>
		<path class="st2" d="M326.75,267.85c6.16,0,8.14,2.49,4.42,5.55l-74.18,61c-26.83,22.06-84.79,40.02-129.2,40.02
			c-44.4,0-58.7-17.95-31.87-40.02l74.18-61c3.72-3.06,11.76-5.55,17.92-5.55H326.75z"/>
	</g>
	<g>
		<path class="st8" d="M198.6,266.5c-0.45,0-0.81,0.61-0.81,1.35c0,0.75,0.36,1.35,0.81,1.35h40.89v-2.71H198.6z"/>
		<path class="st9" d="M240.31,267.86c0,0.75-0.36,1.35-0.82,1.35c-0.45,0-0.81-0.61-0.81-1.35c0-0.75,0.36-1.35,0.81-1.35
			C239.95,266.5,240.31,267.11,240.31,267.86z"/>
	</g>
	<g>
		<path class="st8" d="M271.92,266.5c-0.45,0-0.82,0.61-0.82,1.35c0,0.75,0.36,1.35,0.82,1.35h40.89v-2.71H271.92z"/>
		<path class="st9" d="M313.63,267.86c0,0.75-0.36,1.35-0.81,1.35s-0.82-0.61-0.82-1.35c0-0.75,0.36-1.35,0.82-1.35
			S313.63,267.11,313.63,267.86z"/>
	</g>
	<polygon class="st5" points="352.9,500 318.05,500 318.05,336.65 352.9,372.42 	"/>
	<path class="st7" d="M338.64,137.32H188.32c0.25-9.13,2.11-17.87,5.32-25.91c1.63-4.06,3.59-7.94,5.88-11.62h127.91
		c2.29,3.66,4.27,7.56,5.88,11.62C336.53,119.45,338.39,128.19,338.64,137.32z"/>
	<path class="st10" d="M333.32,111.41H193.65c11.08-27.7,38.18-47.29,69.83-47.29c20.77,0,39.55,8.42,53.17,22.02
		C323.79,93.29,329.51,101.87,333.32,111.41z"/>
	<g>
		<path class="st4" d="M446.8,73.57h-19.67c10.69,6.93,19.61,16.35,25.97,27.4h19.67C466.41,89.93,457.49,80.51,446.8,73.57z"/>
		<path class="st4" d="M423.55,73.57H314.19c9.51,7.27,17.35,16.64,22.86,27.4h112.47C443.16,89.93,434.24,80.51,423.55,73.57z"/>
	</g>
	<g>
		<path class="st5" d="M401.04,5.06h-15.19c-1.66,0-3.02,1.35-3.02,3.02v136.66c-4.72,3.22-8.04,10.92-8.04,19.92
			c0,11.89,5.8,21.53,12.96,21.53c7.16,0,12.96-9.64,12.96-21.53c0-9-3.32-16.7-8.04-19.92V26.28h8.38c1.67,0,3.02-1.35,3.02-3.02
			V8.08C404.06,6.41,402.71,5.06,401.04,5.06z"/>
		<path class="st0" d="M402.83,5.06h-15.19c-1.67,0-3.02,1.35-3.02,3.02v136.66c-4.72,3.22-8.04,10.92-8.04,19.92
			c0,11.89,5.8,21.53,12.96,21.53s12.96-9.64,12.96-21.53c0-9-3.32-16.7-8.04-19.92V26.28h8.38c1.66,0,3.02-1.35,3.02-3.02V8.08
			C405.85,6.41,404.5,5.06,402.83,5.06z"/>
		<ellipse class="st5" cx="389.54" cy="164.65" rx="4.91" ry="8.17"/>
	</g>
	<g>
		<path class="st11" d="M338.66,219.12v43.04c-1.13,0.48-2.38,0.75-3.75,0.75H197.95c-3.7,0-7.26-1.93-9.65-4.86
			c-1.45-1.79-2.49-3.95-2.84-6.26l-14.33-89.91c-0.98-6.13,3.02-11.12,8.95-11.12h136.95c5.93,0,11.53,4.99,12.51,11.12l0.89,5.63
			l0.73,4.63L338.66,219.12z"/>
		<path class="st12" d="M278.12,203.2c2.07-2.06,4.08-4.1,6.09-6.08c3.34-3.26,6.45-6.53,9.42-9.6c3-3.06,5.78-6.02,8.33-8.77
			c5.12-5.45,9.25-10.14,12.12-13.46c2.69-3.1,4.24-5.01,4.44-5.25c-0.24,0.17-2.26,1.61-5.5,4.1c-3.47,2.65-8.4,6.51-14.15,11.27
			c-2.87,2.37-6,4.95-9.23,7.77c-3.24,2.78-6.69,5.69-10.14,8.82c-2.28,2.04-4.65,4.1-7.01,6.23c-0.98,0.89-1.97,1.78-2.95,2.69
			c-0.25,0.22-0.48,0.46-0.73,0.69l-1.35,1.26l-0.69,0.63l-0.58,0.48c-0.77,0.65-1.65,1.17-2.54,1.63c-1.86,0.87-3.96,1.3-6.12,1.32
			c-2.16,0-4.4-0.45-6.54-1.32c-0.5-0.24-1.09-0.46-1.53-0.72c-0.47-0.28-0.87-0.43-1.52-0.89l-0.78-0.5l-0.87-0.63l-1.75-1.24
			c-0.32-0.24-0.65-0.46-0.97-0.69c-1.27-0.93-2.56-1.82-3.83-2.71c-3.04-2.11-6.04-4.17-8.96-6.23c-4.46-3.11-8.84-6.02-12.97-8.82
			c-4.13-2.8-8.06-5.38-11.71-7.77c-7.26-4.76-13.4-8.6-17.72-11.27c-2.14-1.33-3.87-2.34-5.04-3.04c-1.03-0.61-1.62-0.98-1.76-1.06
			c0.12,0.11,0.66,0.57,1.58,1.37c1.05,0.89,2.56,2.24,4.53,3.87c3.92,3.32,9.55,7.99,16.42,13.46c3.42,2.74,7.13,5.71,11.1,8.77
			c3.95,3.06,8.11,6.34,12.49,9.6c2.64,1.98,5.31,4.02,8.02,6.06l-39.54,48.6l42.93-46.06c0.67,0.5,1.36,1,2.05,1.5l1.74,1.28
			l0.87,0.65l1.02,0.69c0.51,0.39,1.37,0.87,2.16,1.32c0.79,0.46,1.51,0.76,2.29,1.13c3.07,1.3,6.31,2,9.46,2.04
			c3.14-0.02,6.16-0.74,8.81-2.04c1.3-0.69,2.55-1.47,3.65-2.43l0.82-0.7l0.66-0.65l1.34-1.26c0.53-0.5,1.06-1,1.56-1.52
			l57.61,46.06L278.12,203.2z"/>
		<g>
			<path class="st13" d="M197.79,159.17h-6.63c-1.48,0-2.68-1.2-2.68-2.68c0-1.48,1.2-2.68,2.68-2.68h6.63
				c1.48,0,2.68,1.2,2.68,2.68C200.47,157.96,199.27,159.17,197.79,159.17z"/>
		</g>
		<g>
			<path class="st13" d="M181.16,159.17h-0.72c-1.48,0-2.68-1.2-2.68-2.68c0-1.48,1.2-2.68,2.68-2.68h0.72
				c1.48,0,2.68,1.2,2.68,2.68C183.84,157.96,182.64,159.17,181.16,159.17z"/>
		</g>
		<path class="st12" d="M338.66,219.12v43.04c-1.13,0.48-2.38,0.75-3.75,0.75h-30.6l-89.2-11.81c-2.9-0.38-5.54-1.93-7.51-4.16
			c-0.27-0.3-0.54-0.63-0.79-0.97c-1.63-2.18-2.66-4.88-2.73-7.67l-1.39-52.67l-0.13-4.63l-0.59-23.02l-0.2-7.22h115.25
			c5.93,0,11.53,4.99,12.51,11.12l0.89,5.63l0.73,4.63L338.66,219.12z"/>
	</g>
	<g>
		<path class="st14" d="M338.66,146.17V259.3l-123-16.3c-2.86-0.38-5.49-1.91-7.44-4.13c-0.27-0.29-0.54-0.61-0.77-0.95
			c-1.63-2.16-2.65-4.83-2.72-7.6l-1.38-52.17l-0.13-4.59l-0.59-22.81l-0.3-11.44c-0.16-6.22,4.47-10.63,10.33-9.85L338.66,146.17z"
			/>
		<path class="st11" d="M309.83,189.11c-2.25,1.7-4.52,3.45-6.85,5.22l35.67,41.02v1.34l-38.57-40.19c-0.57,0.45-1.16,0.87-1.75,1.3
			l-1.48,1.07l-0.75,0.56l-0.89,0.59c-1.21,0.82-2.56,1.43-3.95,1.93c-2.79,0.95-5.88,1.27-8.99,0.86
			c-1.04-0.14-2.07-0.38-3.09-0.68c-2.07-0.57-4.09-1.45-6.02-2.57c-0.41-0.27-0.82-0.52-1.23-0.8c-0.29-0.18-0.57-0.39-0.88-0.63
			c-0.73-0.54-1.52-1.13-1.97-1.59l-0.93-0.8l-0.79-0.77l-1.56-1.48c-0.61-0.59-1.23-1.18-1.82-1.77l-15.42,12.71l-5.31,4.36
			l-27.88,22.97l25.9-24.43l4.84-4.54l14.85-14.01c-2.43-2.38-4.81-4.75-7.17-7.08c-3.91-3.81-7.6-7.6-11.12-11.15
			c-3.54-3.56-6.83-6.99-9.85-10.15c-3.43-3.54-6.49-6.79-9.13-9.61c-2.06-2.23-3.88-4.2-5.4-5.88c-1.73-1.88-3.06-3.41-3.97-4.43
			c-0.8-0.91-1.29-1.45-1.39-1.57c0.12,0.09,0.68,0.54,1.61,1.29c1.07,0.84,2.65,2.07,4.59,3.66c2.29,1.86,5.11,4.2,8.36,6.93
			c2.38,1.98,4.95,4.18,7.72,6.58c3.31,2.84,6.88,5.91,10.6,9.24c3.72,3.31,7.68,6.77,11.69,10.44c2.63,2.43,5.34,4.86,8.08,7.36
			c1.14,1.04,2.29,2.09,3.43,3.18c0.29,0.27,0.59,0.52,0.87,0.8l1.57,1.47l0.79,0.73l0.7,0.61c0.57,0.54,0.95,0.73,1.39,1.07
			c0.39,0.32,0.95,0.61,1.41,0.91c0.5,0.28,1.02,0.55,1.54,0.79c1.54,0.72,3.16,1.18,4.77,1.39c1.34,0.16,2.66,0.16,3.95-0.02h0.02
			c0.79-0.09,1.54-0.27,2.27-0.5c0.95-0.34,1.88-0.73,2.73-1.27l0.64-0.41l0.77-0.54l1.5-1.07c0.29-0.18,0.54-0.39,0.82-0.57
			c1.09-0.77,2.18-1.54,3.27-2.29c2.63-1.8,5.24-3.52,7.78-5.25c3.82-2.65,7.63-5.08,11.2-7.42c3.57-2.36,7.02-4.5,10.17-6.47
			c1.11-0.7,2.18-1.36,3.23-2.02c3.04-1.86,5.81-3.52,8.22-4.93v3.25c-2.2,1.89-4.7,4-7.49,6.31c-0.43,0.36-0.88,0.72-1.34,1.09
			c-2.88,2.39-6.02,4.97-9.4,7.6C317.07,183.49,313.57,186.31,309.83,189.11z"/>
		<g>
			<path class="st13" d="M331.94,152.95c-0.12,0-0.25-0.01-0.37-0.03l-107.65-14.95c-1.47-0.2-2.49-1.56-2.29-3.02
				c0.2-1.47,1.57-2.5,3.02-2.29l107.65,14.95c1.47,0.2,2.49,1.56,2.29,3.02C334.41,151.98,333.26,152.95,331.94,152.95z"/>
		</g>
		<g>
			<path class="st13" d="M216.06,136.86c-0.12,0-0.25-0.01-0.37-0.03l-3.11-0.43c-1.47-0.2-2.49-1.56-2.29-3.02
				c0.2-1.47,1.54-2.5,3.02-2.29l3.11,0.43c1.47,0.2,2.49,1.56,2.29,3.02C218.53,135.89,217.38,136.86,216.06,136.86z"/>
		</g>
	</g>
	<rect x="312" y="247.24" class="st0" width="63.28" height="252.77"/>
	<path class="st1" d="M487.09,139.29v122.76c0,0.29-0.02,0.57-0.04,0.86c-0.43,5.76-5.27,10.31-11.13,10.31H337.18
		c-5.86,0-10.71-4.56-11.14-10.31c-0.02-0.28-0.03-0.57-0.03-0.86V142.31h-62.53V58.76h147.6v0.13c9.02,0.5,17.68,2.5,25.66,5.75
		c4.79,1.95,9.37,4.34,13.64,7.15c10.69,6.93,19.61,16.35,25.97,27.4c5.97,10.31,9.7,22.05,10.56,34.56
		C487.02,135.59,487.09,137.43,487.09,139.29z"/>
	<path class="st2" d="M486.91,133.75H263.47V64.64h173.27C464.6,75.95,484.76,102.42,486.91,133.75z"/>
	<path class="st3" d="M487.05,262.91c-0.43,5.76-5.27,10.31-11.13,10.31H337.18c-5.86,0-10.71-4.56-11.14-10.31H487.05z"/>
	<path class="st4" d="M194.12,273.22c-6.16,0-11.17-5.01-11.17-11.17V139.29c0-44.41,36.13-80.53,80.53-80.53
		c44.41,0,80.53,36.13,80.53,80.53v122.76c0,6.16-5.01,11.17-11.17,11.17H194.12z"/>
	<path class="st6" d="M338.66,139.29v122.87c-0.05,3.15-2.65,5.7-5.81,5.7H194.11c-3.2,0-5.81-2.61-5.81-5.81V139.29
		c0-0.66,0-1.32,0.02-1.97c0.25-9.13,2.11-17.87,5.32-25.91c1.63-4.06,3.59-7.94,5.88-11.62c13.24-21.41,36.94-35.67,63.95-35.67
		c20.77,0,39.55,8.42,53.17,22.02c4.11,4.11,7.74,8.68,10.79,13.65c2.29,3.66,4.27,7.56,5.88,11.62c3.22,8.04,5.08,16.78,5.32,25.91
		C338.66,137.97,338.66,138.63,338.66,139.29z"/>
	<path class="st7" d="M338.66,257.96v4.09c0,3.2-2.61,5.81-5.81,5.81H194.11c-3.2,0-5.81-2.61-5.81-5.81v-4.09H338.66z"/>
	<g>
		<path class="st3" d="M335.38,274.9l-2.34-4.74l-6.85,3.05H190.7c-6.16,0-14.2,2.49-17.92,5.55l-74.18,61
			c-9.13,7.5-13.48,14.53-13.53,20.54l-1.55-0.2l2.54,5.05c0.05,0.11,0.11,0.21,0.16,0.32l0.37,0.75l0.02,0
			c4.66,8.31,19.85,13.57,43.86,13.57c44.41,0,102.36-17.95,129.2-40.02l74.18-61C335.67,277.26,336.12,275.9,335.38,274.9z"/>
		<path class="st2" d="M326.75,267.85c6.16,0,8.14,2.49,4.42,5.55l-74.18,61c-26.83,22.06-84.79,40.02-129.2,40.02
			c-44.4,0-58.7-17.95-31.87-40.02l74.18-61c3.72-3.06,11.76-5.55,17.92-5.55H326.75z"/>
	</g>
	<g>
		<path class="st8" d="M198.6,266.5c-0.45,0-0.81,0.61-0.81,1.35c0,0.75,0.36,1.35,0.81,1.35h40.89v-2.71H198.6z"/>
		<path class="st9" d="M240.31,267.86c0,0.75-0.36,1.35-0.82,1.35c-0.45,0-0.81-0.61-0.81-1.35c0-0.75,0.36-1.35,0.81-1.35
			C239.95,266.5,240.31,267.11,240.31,267.86z"/>
	</g>
	<g>
		<path class="st8" d="M271.92,266.5c-0.45,0-0.82,0.61-0.82,1.35c0,0.75,0.36,1.35,0.82,1.35h40.89v-2.71H271.92z"/>
		<path class="st9" d="M313.63,267.86c0,0.75-0.36,1.35-0.81,1.35s-0.82-0.61-0.82-1.35c0-0.75,0.36-1.35,0.82-1.35
			S313.63,267.11,313.63,267.86z"/>
	</g>
	<polygon class="st5" points="352.9,500 318.05,500 318.05,336.65 352.9,372.42 	"/>
	<path class="st7" d="M338.64,137.32H188.32c0.25-9.13,2.11-17.87,5.32-25.91c1.63-4.06,3.59-7.94,5.88-11.62h127.91
		c2.29,3.66,4.27,7.56,5.88,11.62C336.53,119.45,338.39,128.19,338.64,137.32z"/>
	<path class="st10" d="M333.32,111.41H193.65c11.08-27.7,38.18-47.29,69.83-47.29c20.77,0,39.55,8.42,53.17,22.02
		C323.79,93.29,329.51,101.87,333.32,111.41z"/>
	<g>
		<path class="st4" d="M446.8,73.57h-19.67c10.69,6.93,19.61,16.35,25.97,27.4h19.67C466.41,89.93,457.49,80.51,446.8,73.57z"/>
		<path class="st4" d="M423.55,73.57H314.19c9.51,7.27,17.35,16.64,22.86,27.4h112.47C443.16,89.93,434.24,80.51,423.55,73.57z"/>
	</g>
	<g>
		<path class="st5" d="M401.04,5.06h-15.19c-1.66,0-3.02,1.35-3.02,3.02v136.66c-4.72,3.22-8.04,10.92-8.04,19.92
			c0,11.89,5.8,21.53,12.96,21.53c7.16,0,12.96-9.64,12.96-21.53c0-9-3.32-16.7-8.04-19.92V26.28h8.38c1.67,0,3.02-1.35,3.02-3.02
			V8.08C404.06,6.41,402.71,5.06,401.04,5.06z"/>
		<path class="st0" d="M402.83,5.06h-15.19c-1.67,0-3.02,1.35-3.02,3.02v136.66c-4.72,3.22-8.04,10.92-8.04,19.92
			c0,11.89,5.8,21.53,12.96,21.53s12.96-9.64,12.96-21.53c0-9-3.32-16.7-8.04-19.92V26.28h8.38c1.66,0,3.02-1.35,3.02-3.02V8.08
			C405.85,6.41,404.5,5.06,402.83,5.06z"/>
		<ellipse class="st5" cx="389.54" cy="164.65" rx="4.91" ry="8.17"/>
	</g>
	<g>
		<path class="st11" d="M338.66,219.12v43.04c-1.13,0.48-2.38,0.75-3.75,0.75H197.95c-3.7,0-7.26-1.93-9.65-4.86
			c-1.45-1.79-2.49-3.95-2.84-6.26l-14.33-89.91c-0.98-6.13,3.02-11.12,8.95-11.12h136.95c5.93,0,11.53,4.99,12.51,11.12l0.89,5.63
			l0.73,4.63L338.66,219.12z"/>
		<path class="st12" d="M278.12,203.2c2.07-2.06,4.08-4.1,6.09-6.08c3.34-3.26,6.45-6.53,9.42-9.6c3-3.06,5.78-6.02,8.33-8.77
			c5.12-5.45,9.25-10.14,12.12-13.46c2.69-3.1,4.24-5.01,4.44-5.25c-0.24,0.17-2.26,1.61-5.5,4.1c-3.47,2.65-8.4,6.51-14.15,11.27
			c-2.87,2.37-6,4.95-9.23,7.77c-3.24,2.78-6.69,5.69-10.14,8.82c-2.28,2.04-4.65,4.1-7.01,6.23c-0.98,0.89-1.97,1.78-2.95,2.69
			c-0.25,0.22-0.48,0.46-0.73,0.69l-1.35,1.26l-0.69,0.63l-0.58,0.48c-0.77,0.65-1.65,1.17-2.54,1.63c-1.86,0.87-3.96,1.3-6.12,1.32
			c-2.16,0-4.4-0.45-6.54-1.32c-0.5-0.24-1.09-0.46-1.53-0.72c-0.47-0.28-0.87-0.43-1.52-0.89l-0.78-0.5l-0.87-0.63l-1.75-1.24
			c-0.32-0.24-0.65-0.46-0.97-0.69c-1.27-0.93-2.56-1.82-3.83-2.71c-3.04-2.11-6.04-4.17-8.96-6.23c-4.46-3.11-8.84-6.02-12.97-8.82
			c-4.13-2.8-8.06-5.38-11.71-7.77c-7.26-4.76-13.4-8.6-17.72-11.27c-2.14-1.33-3.87-2.34-5.04-3.04c-1.03-0.61-1.62-0.98-1.76-1.06
			c0.12,0.11,0.66,0.57,1.58,1.37c1.05,0.89,2.56,2.24,4.53,3.87c3.92,3.32,9.55,7.99,16.42,13.46c3.42,2.74,7.13,5.71,11.1,8.77
			c3.95,3.06,8.11,6.34,12.49,9.6c2.64,1.98,5.31,4.02,8.02,6.06l-39.54,48.6l42.93-46.06c0.67,0.5,1.36,1,2.05,1.5l1.74,1.28
			l0.87,0.65l1.02,0.69c0.51,0.39,1.37,0.87,2.16,1.32c0.79,0.46,1.51,0.76,2.29,1.13c3.07,1.3,6.31,2,9.46,2.04
			c3.14-0.02,6.16-0.74,8.81-2.04c1.3-0.69,2.55-1.47,3.65-2.43l0.82-0.7l0.66-0.65l1.34-1.26c0.53-0.5,1.06-1,1.56-1.52
			l57.61,46.06L278.12,203.2z"/>
		<g>
			<path class="st13" d="M197.79,159.17h-6.63c-1.48,0-2.68-1.2-2.68-2.68c0-1.48,1.2-2.68,2.68-2.68h6.63
				c1.48,0,2.68,1.2,2.68,2.68C200.47,157.96,199.27,159.17,197.79,159.17z"/>
		</g>
		<g>
			<path class="st13" d="M181.16,159.17h-0.72c-1.48,0-2.68-1.2-2.68-2.68c0-1.48,1.2-2.68,2.68-2.68h0.72
				c1.48,0,2.68,1.2,2.68,2.68C183.84,157.96,182.64,159.17,181.16,159.17z"/>
		</g>
		<path class="st12" d="M338.66,219.12v43.04c-1.13,0.48-2.38,0.75-3.75,0.75h-30.6l-89.2-11.81c-2.9-0.38-5.54-1.93-7.51-4.16
			c-0.27-0.3-0.54-0.63-0.79-0.97c-1.63-2.18-2.66-4.88-2.73-7.67l-1.39-52.67l-0.13-4.63l-0.59-23.02l-0.2-7.22h115.25
			c5.93,0,11.53,4.99,12.51,11.12l0.89,5.63l0.73,4.63L338.66,219.12z"/>
	</g>
	<g>
		<path class="st14" d="M338.66,146.17V259.3l-123-16.3c-2.86-0.38-5.49-1.91-7.44-4.13c-0.27-0.29-0.54-0.61-0.77-0.95
			c-1.63-2.16-2.65-4.83-2.72-7.6l-1.38-52.17l-0.13-4.59l-0.59-22.81l-0.3-11.44c-0.16-6.22,4.47-10.63,10.33-9.85L338.66,146.17z"
			/>
		<path class="st11" d="M309.83,189.11c-2.25,1.7-4.52,3.45-6.85,5.22l35.67,41.02v1.34l-38.57-40.19c-0.57,0.45-1.16,0.87-1.75,1.3
			l-1.48,1.07l-0.75,0.56l-0.89,0.59c-1.21,0.82-2.56,1.43-3.95,1.93c-2.79,0.95-5.88,1.27-8.99,0.86
			c-1.04-0.14-2.07-0.38-3.09-0.68c-2.07-0.57-4.09-1.45-6.02-2.57c-0.41-0.27-0.82-0.52-1.23-0.8c-0.29-0.18-0.57-0.39-0.88-0.63
			c-0.73-0.54-1.52-1.13-1.97-1.59l-0.93-0.8l-0.79-0.77l-1.56-1.48c-0.61-0.59-1.23-1.18-1.82-1.77l-15.42,12.71l-5.31,4.36
			l-27.88,22.97l25.9-24.43l4.84-4.54l14.85-14.01c-2.43-2.38-4.81-4.75-7.17-7.08c-3.91-3.81-7.6-7.6-11.12-11.15
			c-3.54-3.56-6.83-6.99-9.85-10.15c-3.43-3.54-6.49-6.79-9.13-9.61c-2.06-2.23-3.88-4.2-5.4-5.88c-1.73-1.88-3.06-3.41-3.97-4.43
			c-0.8-0.91-1.29-1.45-1.39-1.57c0.12,0.09,0.68,0.54,1.61,1.29c1.07,0.84,2.65,2.07,4.59,3.66c2.29,1.86,5.11,4.2,8.36,6.93
			c2.38,1.98,4.95,4.18,7.72,6.58c3.31,2.84,6.88,5.91,10.6,9.24c3.72,3.31,7.68,6.77,11.69,10.44c2.63,2.43,5.34,4.86,8.08,7.36
			c1.14,1.04,2.29,2.09,3.43,3.18c0.29,0.27,0.59,0.52,0.87,0.8l1.57,1.47l0.79,0.73l0.7,0.61c0.57,0.54,0.95,0.73,1.39,1.07
			c0.39,0.32,0.95,0.61,1.41,0.91c0.5,0.28,1.02,0.55,1.54,0.79c1.54,0.72,3.16,1.18,4.77,1.39c1.34,0.16,2.66,0.16,3.95-0.02h0.02
			c0.79-0.09,1.54-0.27,2.27-0.5c0.95-0.34,1.88-0.73,2.73-1.27l0.64-0.41l0.77-0.54l1.5-1.07c0.29-0.18,0.54-0.39,0.82-0.57
			c1.09-0.77,2.18-1.54,3.27-2.29c2.63-1.8,5.24-3.52,7.78-5.25c3.82-2.65,7.63-5.08,11.2-7.42c3.57-2.36,7.02-4.5,10.17-6.47
			c1.11-0.7,2.18-1.36,3.23-2.02c3.04-1.86,5.81-3.52,8.22-4.93v3.25c-2.2,1.89-4.7,4-7.49,6.31c-0.43,0.36-0.88,0.72-1.34,1.09
			c-2.88,2.39-6.02,4.97-9.4,7.6C317.07,183.49,313.57,186.31,309.83,189.11z"/>
		<g>
			<path class="st13" d="M331.94,152.95c-0.12,0-0.25-0.01-0.37-0.03l-107.65-14.95c-1.47-0.2-2.49-1.56-2.29-3.02
				c0.2-1.47,1.57-2.5,3.02-2.29l107.65,14.95c1.47,0.2,2.49,1.56,2.29,3.02C334.41,151.98,333.26,152.95,331.94,152.95z"/>
		</g>
		<g>
			<path class="st13" d="M216.06,136.86c-0.12,0-0.25-0.01-0.37-0.03l-3.11-0.43c-1.47-0.2-2.49-1.56-2.29-3.02
				c0.2-1.47,1.54-2.5,3.02-2.29l3.11,0.43c1.47,0.2,2.49,1.56,2.29,3.02C218.53,135.89,217.38,136.86,216.06,136.86z"/>
		</g>
	</g>
</g>
</svg>
